<svg width="716" height="189" viewBox="0 0 716 189" fill="none" xmlns="http://www.w3.org/2000/svg">
<g clip-path="url(#clip0_191_14)">
<path d="M229.032 79.0339C228.824 75.5591 220.998 66.5469 217.305 67.6454C214.488 68.4749 216.104 73.6535 217.166 75.3797C218.967 78.2492 229.448 86.0059 229.032 79.0563V79.0339Z" fill="#F39308"/>
<path d="M245.33 50.2491C244.453 48.5677 242.676 47.5589 240.99 46.6622C217.42 34.3097 190.895 28.0999 164.277 25.2303C137.659 22.3608 84.0314 22.7643 84.0314 22.7643C84.0314 22.7643 79.8298 24.1767 74.0584 14.6265C71.0342 9.58242 63.8546 3.61917 57.8754 4.00028C51.9193 4.40381 32.4351 11.6225 32.943 28.1895C33.4509 44.7342 37.4678 49.6438 41.8771 50.4957C49.6339 51.9977 52.5196 48.6574 55.8208 46.8191C46.6558 58.8801 29.2262 90.6691 16.7831 129.587C13.7589 139.025 0.0229492 186.955 0.0229492 186.955C0.0229492 186.955 10.2729 173.908 20.546 167.093C32.5736 159.134 45.7786 152.947 59.1682 147.387C66.6018 144.316 74.1969 141.536 82.1384 140.056C91.4419 138.308 100.999 138.375 110.464 138.465C121.569 138.554 132.742 138.644 143.615 140.864C151.88 142.545 159.891 145.459 168.248 146.737C177.02 148.06 185.977 147.567 194.773 146.378C198.444 145.885 202.16 145.258 205.415 143.576C209.155 141.626 211.995 138.42 214.465 135.08C219.521 128.242 223.33 120.62 227.07 113.02C236.235 94.4354 245.469 75.1109 246 54.5085C246.046 53.0514 246 51.5045 245.33 50.2042V50.2491ZM121.799 63.9018C120.714 65.4711 115.266 61.3013 104.116 61.0547C95.2741 60.8529 91.0033 63.2741 90.1722 61.7945C88.9256 59.5751 96.2899 50.2491 105.339 50.1594C115.52 50.0697 123.277 61.7496 121.799 63.9018ZM226.054 99.7261C222.937 110.038 214.881 125.059 205.969 131.56C191.033 142.433 158.967 141.289 145.947 127.233C160.976 132.703 180.229 135.976 195.973 131.56C211.579 127.188 219.752 108.178 223.63 94.2336C224.623 90.6916 223.168 87.9341 228.085 87.0374C229.355 87.4858 226.493 98.3362 226.054 99.7485V99.7261ZM211.625 56.3693C213.38 56.1227 217.097 56.3244 218.897 56.6383C222.268 57.2211 225.592 60.2476 228.87 59.7768C230.463 59.5526 234.688 55.9433 235.473 57.0194C237.089 63.7224 235.658 73.7658 232.241 79.8187C228.963 85.625 220.444 86.8805 215.111 82.8228C209.248 78.3839 199.228 58.1403 211.602 56.3693H211.625ZM231.317 95.6684C231.317 95.6684 230.509 95.5563 230.094 95.9374C230.371 93.8301 231.364 87.2616 231.987 85.5802C232.356 84.549 234.342 82.5762 234.965 81.119C250.502 44.3755 219.752 40.6317 191.933 35.1392C168.086 30.4314 143.915 27.0238 119.768 24.1318C150.633 24.7596 176.027 25.2976 206.223 33.3009C214.881 35.5876 240.39 42.9856 242.514 52.2891C244.361 60.3821 237.089 89.2568 231.317 95.646V95.6684Z" fill="#F39308"/>
</g>
<path d="M327.55 151.5C320.05 151.5 313.1 150.15 306.7 147.45C300.3 144.65 294.7 140.8 289.9 135.9C285.2 131 281.55 125.3 278.95 118.8C276.35 112.3 275.05 105.35 275.05 97.95C275.05 90.45 276.35 83.45 278.95 76.95C281.55 70.45 285.2 64.8 289.9 60C294.7 55.1 300.25 51.3 306.55 48.6C312.95 45.8 319.9 44.4 327.4 44.4C335.6 44.4 342.8 45.8 349 48.6C355.2 51.4 360.7 55.2 365.5 60L355.75 69.75C352.45 66.05 348.4 63.15 343.6 61.05C338.9 58.95 333.5 57.9 327.4 57.9C321.9 57.9 316.85 58.9 312.25 60.9C307.65 62.8 303.65 65.55 300.25 69.15C296.85 72.75 294.2 77 292.3 81.9C290.5 86.8 289.6 92.15 289.6 97.95C289.6 103.75 290.5 109.1 292.3 114C294.2 118.9 296.85 123.15 300.25 126.75C303.65 130.35 307.65 133.15 312.25 135.15C316.85 137.05 321.9 138 327.4 138C333.9 138 339.55 136.95 344.35 134.85C349.15 132.65 353.2 129.7 356.5 126L366.25 135.6C361.45 140.6 355.8 144.5 349.3 147.3C342.9 150.1 335.65 151.5 327.55 151.5ZM404.481 151.5C397.981 151.5 392.081 149.9 386.781 146.7C381.481 143.4 377.281 138.95 374.181 133.35C371.181 127.75 369.681 121.45 369.681 114.45C369.681 107.45 371.181 101.15 374.181 95.55C377.281 89.95 381.431 85.5 386.631 82.2C391.931 78.9 397.881 77.25 404.481 77.25C409.881 77.25 414.681 78.4 418.881 80.7C423.181 82.9 426.631 86 429.231 90C431.831 93.9 433.281 98.45 433.581 103.65V125.1C433.281 130.2 431.831 134.75 429.231 138.75C426.731 142.75 423.331 145.9 419.031 148.2C414.831 150.4 409.981 151.5 404.481 151.5ZM406.731 138.75C413.431 138.75 418.831 136.5 422.931 132C427.031 127.4 429.081 121.55 429.081 114.45C429.081 109.55 428.131 105.3 426.231 101.7C424.431 98 421.831 95.15 418.431 93.15C415.031 91.05 411.081 90 406.581 90C402.081 90 398.081 91.05 394.581 93.15C391.181 95.25 388.481 98.15 386.481 101.85C384.581 105.45 383.631 109.6 383.631 114.3C383.631 119.1 384.581 123.35 386.481 127.05C388.481 130.65 391.231 133.5 394.731 135.6C398.231 137.7 402.231 138.75 406.731 138.75ZM428.181 150V130.8L430.731 113.4L428.181 96.15V78.75H441.831V150H428.181ZM494.486 151.5C489.086 151.5 484.186 150.4 479.786 148.2C475.486 145.9 472.036 142.75 469.436 138.75C466.836 134.75 465.386 130.2 465.086 125.1V103.65C465.386 98.45 466.836 93.9 469.436 90C472.136 86 475.636 82.9 479.936 80.7C484.336 78.4 489.186 77.25 494.486 77.25C500.986 77.25 506.836 78.9 512.036 82.2C517.336 85.5 521.486 89.95 524.486 95.55C527.486 101.15 528.986 107.45 528.986 114.45C528.986 121.45 527.486 127.75 524.486 133.35C521.486 138.95 517.336 143.4 512.036 146.7C506.836 149.9 500.986 151.5 494.486 151.5ZM456.986 179.85V78.75H470.486V97.5L467.936 114.75L470.486 132.15V179.85H456.986ZM492.236 138.75C496.736 138.75 500.686 137.7 504.086 135.6C507.486 133.5 510.186 130.65 512.186 127.05C514.186 123.35 515.186 119.1 515.186 114.3C515.186 109.6 514.186 105.4 512.186 101.7C510.186 98 507.486 95.15 504.086 93.15C500.686 91.05 496.786 90 492.386 90C487.886 90 483.936 91.05 480.536 93.15C477.136 95.15 474.486 98 472.586 101.7C470.686 105.4 469.736 109.65 469.736 114.45C469.736 119.15 470.636 123.35 472.436 127.05C474.336 130.65 476.986 133.5 480.386 135.6C483.886 137.7 487.836 138.75 492.236 138.75ZM539.941 150V78.75H553.441V150H539.941ZM546.691 64.5C544.191 64.5 542.141 63.7 540.541 62.1C538.941 60.4 538.141 58.3 538.141 55.8C538.141 53.4 538.941 51.4 540.541 49.8C542.141 48.1 544.191 47.25 546.691 47.25C549.191 47.25 551.241 48.1 552.841 49.8C554.441 51.4 555.241 53.4 555.241 55.8C555.241 58.3 554.441 60.4 552.841 62.1C551.241 63.7 549.191 64.5 546.691 64.5ZM593.286 150L560.586 78.75H575.586L601.836 138.9H593.136L619.536 78.75H633.936L601.236 150H593.286ZM668.464 151.5C661.964 151.5 656.064 149.9 650.764 146.7C645.464 143.4 641.264 138.95 638.164 133.35C635.164 127.75 633.664 121.45 633.664 114.45C633.664 107.45 635.164 101.15 638.164 95.55C641.264 89.95 645.414 85.5 650.614 82.2C655.914 78.9 661.864 77.25 668.464 77.25C673.864 77.25 678.664 78.4 682.864 80.7C687.164 82.9 690.614 86 693.214 90C695.814 93.9 697.264 98.45 697.564 103.65V125.1C697.264 130.2 695.814 134.75 693.214 138.75C690.714 142.75 687.314 145.9 683.014 148.2C678.814 150.4 673.964 151.5 668.464 151.5ZM670.714 138.75C677.414 138.75 682.814 136.5 686.914 132C691.014 127.4 693.064 121.55 693.064 114.45C693.064 109.55 692.114 105.3 690.214 101.7C688.414 98 685.814 95.15 682.414 93.15C679.014 91.05 675.064 90 670.564 90C666.064 90 662.064 91.05 658.564 93.15C655.164 95.25 652.464 98.15 650.464 101.85C648.564 105.45 647.614 109.6 647.614 114.3C647.614 119.1 648.564 123.35 650.464 127.05C652.464 130.65 655.214 133.5 658.714 135.6C662.214 137.7 666.214 138.75 670.714 138.75ZM692.164 150V130.8L694.714 113.4L692.164 96.15V78.75H705.814V150H692.164Z" fill="black"/>
<defs>
<clipPath id="clip0_191_14">
<rect width="246" height="183" fill="white" transform="translate(0 4)"/>
</clipPath>
</defs>
</svg>
